<svg fill="#ffffff" xmlns="http://www.w3.org/2000/svg" version="1.1" xmlns:xlink="http://www.w3.org/1999/xlink" xmlns:svgjs="http://svgjs.com/svgjs" width="512" height="512" x="0" y="0" viewBox="0 0 512 512" style="enable-background:new 0 0 512 512" xml:space="preserve" class=""><g><path xmlns="http://www.w3.org/2000/svg" d="m511.424 145.112-39.742-118.71c-1.365-4.077-5.184-6.825-9.483-6.825h-412.398c-4.299 0-8.118 2.748-9.483 6.825l-39.742 118.71c-.249.699-.422 1.434-.509 2.195-.001.011-.067 1.188-.067 1.203v32.551c0 21.77 11.762 40.839 29.253 51.159v232.125c0 15.482 12.595 28.078 28.077 28.078h397.34c15.482 0 28.077-12.596 28.077-28.078v-143.31c0-5.522-4.477-10-10-10s-10 4.478-10 10v143.31c0 4.454-3.624 8.078-8.077 8.078h-96.152l32.376-71.912h2.921c15.693 0 28.461-12.788 28.461-28.507 0-10.557-5.751-19.939-14.517-24.866.194-3.141.294-6.222.294-8.473 0-39.68-32.211-71.961-71.805-71.961s-71.805 32.281-71.805 71.961c0 2.258.101 5.349.296 8.498-8.662 4.925-14.34 14.281-14.34 24.813 0 15.734 12.688 28.535 28.282 28.535h2.923l32.375 71.912h-106.56v-164.395c0-5.522-4.477-10-10-10h-97.695c-5.523 0-10 4.478-10 10v164.395h-32.394c-4.454 0-8.077-3.624-8.077-8.078v-224.798c3.235.551 6.558.838 9.947.838 20.482 0 38.567-10.477 49.2-26.364 10.633 15.887 28.718 26.364 49.2 26.364 20.481 0 38.567-10.477 49.2-26.364 10.633 15.887 28.719 26.364 49.2 26.364s38.567-10.477 49.2-26.364c10.633 15.887 28.718 26.364 49.2 26.364s38.567-10.477 49.2-26.364c10.633 15.887 28.719 26.364 49.2 26.364 32.643 0 59.2-26.612 59.2-59.324v-32.551c0-.015-.327-2.699-.576-3.398zm-177.724 322.391-27.179-60.372c8.385 5.273 18.749 8.22 29.721 8.22 10.983 0 21.356-2.953 29.745-8.235l-27.187 60.386c-.037.082-.072.163-.106.246-.417.995-1.375 1.639-2.443 1.639s-2.027-.644-2.443-1.639c-.036-.081-.072-.163-.108-.245zm-63.299-95.527c0-4.191 2.781-7.623 6.763-8.344 5.257-.951 8.838-5.868 8.131-11.164-.525-3.928-.85-10.223-.85-13.803 0-28.651 23.239-51.961 51.805-51.961 28.565 0 51.805 23.31 51.805 51.961 0 3.58-.325 9.875-.85 13.803-.707 5.296 2.874 10.213 8.131 11.164 4.022.729 6.941 4.249 6.941 8.372 0 4.69-3.795 8.507-8.461 8.507h-24.108c-3.112 0-6.046 1.448-7.938 3.919-5.161 6.736-14.942 10.922-25.527 10.922s-20.366-4.186-25.528-10.923c-1.892-2.47-4.826-3.918-7.938-3.918h-24.093c-4.645 0-8.283-3.749-8.283-8.535zm-160.677-53.948h77.698v154.395h-77.698zm378.382-179.566h-75.681l-5.498-43.874-6.893-55.011h54.968zm-355.983-98.885h73.806l-5.724 68.009-2.599 30.876h-77.875zm91.278 30.876 2.599-30.876h60l2.599 30.876 5.724 68.009h-76.646zm90.993 68.009-2.599-30.876-5.724-68.009h73.806l12.391 98.885zm-257.395-98.885h54.968l-6.893 55.011-5.498 43.874h-75.682zm2.201 180.808c-21.615 0-39.2-17.641-39.2-39.324v-22.599h78.4v22.599c0 21.683-17.585 39.324-39.2 39.324zm98.4 0c-21.615 0-39.2-17.641-39.2-39.324v-22.599h78.4v22.599c0 21.683-17.585 39.324-39.2 39.324zm98.4 0c-21.615 0-39.2-17.641-39.2-39.324v-22.599h78.4v22.599c0 21.683-17.585 39.324-39.2 39.324zm98.4 0c-21.615 0-39.2-17.641-39.2-39.324v-22.599h78.4v22.599c0 21.683-17.585 39.324-39.2 39.324zm137.6-39.324c0 21.684-17.585 39.324-39.2 39.324s-39.2-17.641-39.2-39.324v-22.599h78.4z" fill="#ffffff" data-original="#000000" class=""></path><path xmlns="http://www.w3.org/2000/svg" d="m472.75 286.01c-4.172 0-8.016-2.695-9.415-6.631-1.379-3.88-.203-8.327 2.946-10.99 3.284-2.777 8.091-3.121 11.745-.864 3.497 2.16 5.336 6.417 4.523 10.445-.93 4.617-5.085 8.04-9.799 8.04z" data-original="#000000" class=""></path></g></svg>