<svg fill="#fff" id="Layer_1_1_" enable-background="new 0 0 64 64" height="512" viewBox="0 0 64 64" width="512" xmlns="http://www.w3.org/2000/svg"><path d="m60 6.425c0-2.44-1.985-4.425-4.425-4.425-1.293 0-2.518.563-3.359 1.546l-8.786 10.25c-.629-1.154-1.437-2.22-2.414-3.161-2.567-2.474-5.925-3.765-9.521-3.625-6.591.249-11.964 5.552-12.451 12.039-6.721.492-12.044 6.106-12.044 12.951v11c0 1.355.859 2.471 2.189 2.843.286.08.572.118.854.118.558 0 1.089-.162 1.553-.445l4.442 15.756c.121.43.514.728.962.728h30c.449 0 .844-.3.964-.732l4.393-15.813c.398.286.854.483 1.346.531.842.084 1.688-.195 2.313-.764.626-.568.984-1.377.984-2.222v-11c0-3.566-1.415-6.893-3.985-9.366-1.62-1.559-3.564-2.648-5.673-3.206l11.132-9.648c.969-.842 1.526-2.06 1.526-3.355zm-28.429 2.583c3.027-.107 5.885.977 8.058 3.067 1.945 1.873 3.101 4.326 3.324 6.982-6.32.508-11.404 5.599-11.899 11.924-.776-.002-1.541.278-2.109.806-.609.567-.945 1.34-.945 2.213 0 .552-.448 1-1 1s-1-.448-1-1v-3.295c0-.89-.379-1.716-1.039-2.267-2.488-2.076-3.932-5.115-3.961-8.338-.052-5.893 4.69-10.87 10.571-11.092zm15.317 41.941c.033 0 .065 0 .099-.001.699-.021 1.416-.28 1.975-.746l-.418 1.505c-1.234.249-2.042.94-2.71 1.524-.753.658-1.297 1.133-2.359 1.133-1.036 0-1.518-.462-2.184-1.101-.771-.739-1.729-1.658-3.568-1.658s-2.797.919-3.566 1.658c-.666.639-1.146 1.101-2.182 1.101-1.033 0-1.515-.462-2.18-1.101-.769-.739-1.726-1.658-3.563-1.658-1.839 0-2.796.919-3.565 1.658-.666.639-1.146 1.101-2.181 1.101-1.066 0-1.653-.503-2.396-1.139-.667-.571-1.469-1.246-2.667-1.505l-2.525-8.96h-.002c-.065-.24-.163-.434-.243-.589-.031-.059-.064-.116-.085-.175-.037-.105.056-.271.164-.388.388-.418 1.036-.049 2.673 1.197 1.349 1.029 2.879 2.195 4.595 2.195 2.535 0 4.894-.74 6.896-2h10.174c.261.165.529.322.803.469.943.505 2.106.908 3.458 1.2.258.056.524.1.792.143.7.114 1.363.222 1.796.582.525.437.468 1.04.387 1.36l-.056.211c-.106.396-.227.847-.196 1.361.09 1.534 1.275 2.623 2.834 2.623zm4.113-8.09-1.018 3.666c.006-1.963.017-5.022.017-5.025 0-.275.225-.5.5-.5s.5.225.5.5v1.348c0 .003.001.007.001.011zm-21.642-1.859c1.116-1.16 2.022-2.521 2.649-4.03.621 1.491 1.516 2.859 2.635 4.03zm-18.474 2.491c-.285.473-.786.531-1.156.425-.171-.047-.729-.254-.729-.916v-11c0-5.748 4.433-10.473 10.059-10.952.28 3.46 1.922 6.675 4.62 8.926.2.168.32.44.32.731v3.295c0 1.654 1.346 3 3 3s3-1.346 3-3.039c0-.273.109-.525.308-.71.172-.16.403-.237.642-.259-.503 5.602-5.218 10.008-10.949 10.008-1.04 0-2.285-.948-3.384-1.785-1.629-1.24-3.657-2.785-5.348-.97-.652.699-.873 1.601-.588 2.415.053.149.123.292.196.434.034.063.079.152.088.181.003.023-.014.108-.079.216zm35.355 16.509h-28.483l-1.631-5.787c.218.16.434.334.662.53.843.722 1.891 1.62 3.697 1.62 1.839 0 2.796-.919 3.565-1.658.666-.639 1.146-1.101 2.181-1.101 1.033 0 1.514.462 2.179 1.101.769.738 1.726 1.658 3.564 1.658s2.797-.919 3.566-1.658c.666-.639 1.146-1.101 2.182-1.101s1.518.462 2.184 1.101c.771.739 1.729 1.658 3.568 1.658 1.813 0 2.846-.901 3.675-1.626.251-.219.481-.406.712-.574zm8.76-28v11c0 .285-.116.549-.328.741s-.483.279-.776.254c-.458-.045-.893-.607-.896-1.152v-1.343c0-1.379-1.121-2.5-2.5-2.5s-2.5 1.121-2.5 2.496c0 0-.021 5.569-.021 6.505 0 .724-.661.937-1.052.947-.314.015-.84-.074-.878-.739-.011-.192.059-.451.132-.726l.063-.24c.328-1.303-.063-2.569-1.048-3.388-.852-.709-1.862-.873-2.754-1.018-.233-.038-.466-.075-.69-.124-1.169-.252-2.157-.592-2.936-1.009-3.688-1.974-5.968-5.951-5.81-10.135.214-5.611 4.952-10.35 10.563-10.563 3.023-.103 5.884.975 8.057 3.066 2.177 2.096 3.374 4.91 3.374 7.928zm2.163-23.731-12.22 10.591c-.089-1.04-.304-2.051-.631-3.022l9.421-10.991c.462-.538 1.133-.847 1.842-.847 1.337 0 2.425 1.088 2.425 2.437 0 .703-.305 1.371-.837 1.832z"></path><path d="m35 11h1v2h-1z"></path><path d="m29 13h1v2h-1z"></path><path d="m25 16h1v2h-1z"></path><path d="m33 15h1v2h-1z"></path><path d="m39 15h1v2h-1z"></path><path d="m16 24h1v2h-1z"></path><path d="m13 26h1v2h-1z"></path><path d="m45 24h1v2h-1z"></path><path d="m38 26h1v2h-1z"></path><path d="m42 28h1v2h-1z"></path><path d="m50 26h1v2h-1z"></path></svg>