<svg fill="#fff" id="Layer_1" enable-background="new 0 0 520 520" height="512" viewBox="0 0 520 520" width="512" xmlns="http://www.w3.org/2000/svg"><g id="_x35_2_x2C__Dessert_x2C__Ice_Cream_x2C__Ice_cream_x2C__Summer"><g><path d="m254.9 20.2c-70.6 0-128.1 57.5-128.1 128.1v13.7c0 9.6 4.9 18.1 12.4 23v175.4c0 26.2 21.3 47.6 47.6 47.6h32.4v56.1c0 19.7 16 35.7 35.7 35.7s35.7-16 35.7-35.7v-56.1h32.4c26.2 0 47.6-21.3 47.6-47.6v-89.1c7.5-5.2 12.4-13.9 12.4-23.7 0-125.4.1-118-.1-119.5-9.8-61.5-64.8-107.9-128-107.9zm-107.7 128.1c0-59.4 48.3-107.7 107.7-107.7 53 0 99.1 38.6 107.7 89.9v117.1c0 4.6-3.8 8.4-8.4 8.4s-8.4-3.8-8.4-8.4v-49.6c0-15.9-12.9-28.8-28.8-28.8s-28.8 12.9-28.8 28.8v24.8c0 4.6-3.8 8.4-8.4 8.4s-8.4-3.8-8.4-8.4v-24.8c0-15.9-12.9-28.8-28.8-28.8s-28.8 12.9-28.8 28.8c0 4.6-3.8 8.4-8.4 8.4s-8.4-3.8-8.4-8.4v-18.6c0-5.6-4.6-10.2-10.2-10.2h-32.3c-4 0-7.2-3.2-7.2-7.2zm123 315.8c0 8.4-6.9 15.3-15.3 15.3s-15.3-6.9-15.3-15.3v-56.1h30.6zm52.8-76.6c-49.3 0-87 0-136.2 0-15 0-27.2-12.2-27.2-27.2v-170.8h16.8v8.4c0 15.9 12.9 28.8 28.8 28.8s28.8-12.9 28.8-28.8c0-4.6 3.8-8.4 8.4-8.4s8.4 3.8 8.4 8.4v24.8c0 15.9 12.9 28.8 28.8 28.8s28.8-12.9 28.8-28.8v-24.7c0-4.6 3.8-8.4 8.4-8.4s8.4 3.8 8.4 8.4v49.6c0 14.5 10.8 26.6 24.8 28.5v84.2c.2 15.1-12 27.2-27 27.2z"></path><path d="m260.5 91.5c25 0 46.8 18.3 50.7 42.5.9 5.5 6.1 9.4 11.7 8.5s9.4-6.1 8.5-11.7c-5.4-34.1-35.9-59.8-70.8-59.8-5.6 0-10.2 4.6-10.2 10.2-.1 5.7 4.5 10.3 10.1 10.3z"></path><path d="m209 265.1c-5.6 0-10.2 4.6-10.2 10.2v81.6c0 5.6 4.6 10.2 10.2 10.2s10.2-4.6 10.2-10.2v-81.6c0-5.6-4.6-10.2-10.2-10.2z"></path><path d="m249.8 265.1c-5.6 0-10.2 4.6-10.2 10.2v81.6c0 5.6 4.6 10.2 10.2 10.2s10.2-4.6 10.2-10.2v-81.6c0-5.6-4.6-10.2-10.2-10.2z"></path><path d="m290.6 265.1c-5.6 0-10.2 4.6-10.2 10.2v81.6c0 5.6 4.6 10.2 10.2 10.2s10.2-4.6 10.2-10.2v-81.6c0-5.6-4.6-10.2-10.2-10.2z"></path><path d="m106.9 275.3c0-16.9-13.7-30.6-30.6-30.6s-30.6 13.7-30.6 30.6 13.7 30.6 30.6 30.6 30.6-13.7 30.6-30.6zm-30.6 10.2c-5.6 0-10.2-4.6-10.2-10.2s4.6-10.2 10.2-10.2 10.2 4.6 10.2 10.2-4.5 10.2-10.2 10.2z"></path><path d="m438.6 122.3c-19.7 0-35.7 16-35.7 35.7s16 35.7 35.7 35.7 35.7-16 35.7-35.7-16.1-35.7-35.7-35.7zm0 51c-8.4 0-15.3-6.9-15.3-15.3s6.9-15.3 15.3-15.3 15.3 6.9 15.3 15.3-6.9 15.3-15.3 15.3z"></path><circle cx="76.4" cy="112.1" r="10.2"></circle><path d="m402.9 40.6c0-5.6-4.6-10.2-10.2-10.2s-10.2 4.6-10.2 10.2 4.6 10.2 10.2 10.2 10.2-4.5 10.2-10.2z"></path><path d="m402.9 356.9c-5.6 0-10.2 4.6-10.2 10.2s4.6 10.2 10.2 10.2 10.2-4.6 10.2-10.2-4.6-10.2-10.2-10.2z"></path><path d="m429.3 254.9 14.4 14.4 14.4-14.4-14.4-14.4z"></path><path d="m96.8 397.8h20.4v20.4h-20.4z" transform="matrix(-.707 -.707 .707 -.707 -105.898 772.127)"></path></g></g></svg>