<svg fill="#fff" viewBox="0 0 512 512.00001" xmlns="http://www.w3.org/2000/svg"><path d="m511.542969 485.050781-25.261719-128.933593c-1.0625-5.421876-6.316406-8.949219-11.734375-7.890626-5.421875 1.058594-8.953125 6.3125-7.890625 11.734376l25.261719 128.933593c.230469 1.1875-.179688 2.097657-1.230469 2.699219-1.046875.605469-2.039062.511719-2.949219-.285156l-148.257812-129.265625c.808593-.417969 1.613281-.847657 2.40625-1.304688 8.257812-4.765625 15.117187-11.425781 20.078125-19.445312 11.316406-1.742188 22.1875-5.410157 32.378906-10.921875.832031-.425782 1.664062-.878906 2.488281-1.351563.808594-.472656 1.617188-.964843 2.402344-1.46875 9.875-6.070312 18.480469-13.652343 25.652344-22.585937 9.425781-.289063 18.621093-2.898438 26.875-7.664063 13.277343-7.664062 22.773437-20.042969 26.742187-34.847656 3.96875-14.808594 1.929688-30.273437-5.734375-43.550781-8.488281-14.699219-23.011719-24.808594-39.5625-27.785156-13.445312-22.886719-34.941406-39.261719-60.609375-46.140626-25.921875-6.945312-52.992187-3.378906-76.230468 10.039063-18.25 10.535156-31.933594 25.972656-40.375 43.691406-8.4375-17.71875-22.125-33.15625-40.375-43.691406-23.238282-13.417969-50.308594-16.984375-76.230469-10.039063-25.671875 6.878907-47.167969 23.253907-60.609375 46.140626-16.550782 2.976562-31.078125 13.082031-39.5625 27.785156-11.144532 19.304687-9.75 42.453125 1.621094 59.988281l-40.394532 206.160156c-1.882812 9.605469 2.378906 18.972657 10.851563 23.867188 3.582031 2.066406 7.476562 3.082031 11.339843 3.082031 5.277344 0 10.496094-1.902344 14.757813-5.617188l158.292969-138.019531c1.003906.054688 2.007812.089844 3.015625.089844 4.984375 0 10.003906-.65625 14.945312-1.980469 14.808594-3.96875 27.1875-13.464844 34.851563-26.742187 4.351562-7.539063 6.851562-15.847657 7.496094-24.289063.644531 8.441406 3.144531 16.753906 7.5 24.289063 10.617187 18.390625 29.949218 28.6875 49.796874 28.6875.992188 0 1.980469-.035157 2.972657-.085938l158.332031 138.050781c4.261719 3.714844 9.476562 5.617188 14.757812 5.617188 3.863282 0 7.757813-1.015625 11.335938-3.082031 8.476562-4.894531 12.738281-14.261719 10.855469-23.867188zm-487.296875 6.261719c-.910156.792969-1.902344.890625-2.953125.285156-1.046875-.605468-1.460938-1.515625-1.226563-2.699218l37.820313-193.023438c.761719.488281 1.539062.96875 2.332031 1.425781 8.257812 4.769531 17.453125 7.378907 26.878906 7.667969 7.171875 8.929688 15.777344 16.511719 25.648438 22.582031.785156.507813 1.597656 1 2.40625 1.46875.816406.46875 1.652344.925781 2.488281 1.355469 10.1875 5.511719 21.058594 9.175781 32.375 10.921875 4.964844 8.015625 11.824219 14.675781 20.078125 19.441406.792969.457031 1.597656.886719 2.40625 1.304688zm210.828125-209.066406c-.527344.90625-1.128907 1.890625-1.898438 3.101562-1.851562 2.898438-2.082031 6.546875-.609375 9.652344 5.265625 11.121094 4.742188 24.105469-1.390625 34.730469-4.996093 8.648437-13.058593 14.835937-22.707031 17.421875-9.644531 2.585937-19.722656 1.257812-28.371094-3.734375-6.433594-3.714844-11.5625-9.183594-14.832031-15.820313-1.523437-3.097656-4.535156-5.1875-7.96875-5.53125-10.605469-1.066406-20.777344-4.203125-30.226563-9.332031-.074218-.039063-.148437-.078125-.21875-.113281-.570312-.289063-1.132812-.597656-1.695312-.921875-.558594-.324219-1.109375-.660157-1.644531-1.007813-.070313-.042968-.136719-.085937-.207031-.128906-9.164063-5.621094-16.96875-12.859375-23.195313-21.511719-1.886719-2.621093-4.910156-4.160156-8.113281-4.160156-.21875 0-.441406.007813-.660156.019531-7.378907.484375-14.683594-1.214844-21.117188-4.929687-17.851562-10.308594-23.992188-33.222657-13.683594-51.078125 6.132813-10.625 17.117188-17.566406 29.378906-18.570313 3.433594-.28125 6.476563-2.304687 8.0625-5.359375.652344-1.261718 1.203126-2.273437 1.730469-3.1875 10.746094-18.609375 28.097657-31.925781 48.855469-37.488281 20.761719-5.5625 42.445312-2.707031 61.058594 8.039063 38.421875 22.183593 51.632812 71.488281 29.453125 109.910156zm20.917969 24.3125c-.398438-5.074219-1.464844-10.113282-3.214844-14.984375 1.152344-2.03125 2.21875-4.089844 3.214844-6.164063.996093 2.074219 2.0625 4.132813 3.21875 6.164063-1.753907 4.871093-2.820313 9.910156-3.21875 14.984375zm24.816406 23.171875c-6.132813-10.625-6.65625-23.609375-1.390625-34.726563 1.46875-3.109375 1.238281-6.757812-.609375-9.65625-.769532-1.210937-1.375-2.195312-1.894532-3.097656-22.183593-38.421875-8.972656-87.730469 29.449219-109.914062 12.398438-7.15625 26.15625-10.8125 40.101563-10.8125 6.988281 0 14.023437.917968 20.953125 2.777343 20.761719 5.5625 38.113281 18.875 48.859375 37.488281.519531.90625 1.070312 1.917969 1.734375 3.191407 1.585937 3.050781 4.628906 5.074219 8.058593 5.351562 12.261719 1.003907 23.246094 7.945313 29.378907 18.570313 4.992187 8.648437 6.320312 18.726562 3.734375 28.375-2.582032 9.648437-8.769532 17.710937-17.421875 22.703125-6.433594 3.714843-13.742188 5.417969-21.113281 4.933593-3.449219-.230468-6.761719 1.335938-8.777344 4.136719-6.222656 8.652344-14.027344 15.890625-23.191406 21.511719-.066407.042969-.136719.085938-.203126.128906-.539062.347656-1.089843.6875-1.648437 1.007813-.5625.324219-1.125.632812-1.695313.921875-.074218.039062-.144531.078125-.21875.117187-9.449218 5.125-19.621093 8.265625-30.226562 9.328125-3.433594.347656-6.445312 2.4375-7.972656 5.53125-3.269532 6.636719-8.394532 12.109375-14.828125 15.820313-17.851563 10.308593-40.765625 4.171875-51.078125-13.6875zm0 0"></path><path d="m469.554688 312.738281c-2.640626 0-5.21875 1.0625-7.078126 2.933594-1.859374 1.859375-2.921874 4.4375-2.921874 7.066406 0 2.632813 1.0625 5.203125 2.921874 7.070313 1.867188 1.859375 4.4375 2.929687 7.078126 2.929687 2.628906 0 5.210937-1.070312 7.070312-2.929687 1.859375-1.867188 2.929688-4.4375 2.929688-7.070313 0-2.628906-1.070313-5.207031-2.929688-7.066406-1.859375-1.871094-4.441406-2.933594-7.070312-2.933594zm0 0"></path><path d="m191.484375 117.503906c1.953125 1.949219 4.511719 2.925782 7.066406 2.925782 2.5625 0 5.121094-.976563 7.074219-2.933594 3.902344-3.90625 3.902344-10.238282-.003906-14.140625l-21.558594-21.539063c-3.910156-3.90625-10.242188-3.902344-14.144531.003906-3.902344 3.90625-3.898438 10.238282.007812 14.144532zm0 0"></path><path d="m305.003906 118.925781c1.949219 1.949219 4.507813 2.925781 7.066406 2.925781 2.558594 0 5.121094-.980468 7.074219-2.933593l22.917969-22.9375c3.902344-3.90625 3.898438-10.238281-.003906-14.144531-3.910156-3.902344-10.242188-3.898438-14.144532.007812l-22.917968 22.9375c-3.902344 3.90625-3.898438 10.238281.007812 14.144531zm0 0"></path><path d="m251.324219 97.773438c1.496093.816406 3.144531 1.222656 4.792969 1.222656 1.648437 0 3.300781-.40625 4.792968-1.222656 5.269532-2.878907 51.480469-29.007813 51.480469-59.949219-.003906-20.855469-16.511719-37.824219-36.800781-37.824219-6.917969 0-13.675782 2.03125-19.472656 5.738281-5.792969-3.707031-12.550782-5.738281-19.46875-5.738281-20.292969 0-36.800782 16.96875-36.800782 37.824219 0 30.945312 46.210938 57.070312 51.476563 59.949219zm-14.675781-77.773438c4.59375 0 8.882812 1.929688 12.078124 5.4375 1.894532 2.082031 4.578126 3.265625 7.390626 3.265625s5.496093-1.183594 7.390624-3.261719c3.199219-3.511718 7.488282-5.441406 12.082032-5.441406 9.261718 0 16.800781 7.996094 16.800781 17.824219 0 13.40625-22.015625 30.789062-36.277344 39.597656-14.265625-8.789063-36.265625-26.140625-36.265625-39.597656 0-9.828125 7.539063-17.824219 16.800782-17.824219zm0 0"></path><path d="m191.914062 196.074219c-12.273437-7.085938-26.570312-8.96875-40.257812-5.300781-13.6875 3.667968-25.128906 12.445312-32.210938 24.71875-2.761718 4.78125-1.125 10.898437 3.660157 13.660156 1.574219.910156 3.292969 1.339844 4.988281 1.339844 3.457031 0 6.816406-1.792969 8.667969-5 9.113281-15.785157 29.371093-21.210938 45.152343-12.101563 4.785157 2.761719 10.898438 1.125 13.660157-3.65625 2.761719-4.785156 1.125-10.902344-3.660157-13.660156zm0 0"></path></svg>